<?xml version="1.0" encoding="UTF-8"?>
<!--Generator: Apple Native CoreSVG 175.5-->
<!DOCTYPE svg
PUBLIC "-//W3C//DTD SVG 1.1//EN"
       "http://www.w3.org/Graphics/SVG/1.1/DTD/svg11.dtd">
<svg version="1.1" xmlns="http://www.w3.org/2000/svg" xmlns:xlink="http://www.w3.org/1999/xlink" width="3300" height="2200">
 <!--glyph: "uni100749.medium", point size: 100.0, font version: "18.0d12e2", template writer version: "101"-->
 <style>.monochrome-0 {fill:#000000}

.SFSymbolsPreview000000 {fill:#000000;opacity:1.0}
</style>
 <g id="Notes">
  <rect height="2200" id="artboard" style="fill:white;opacity:1" width="3300" x="0" y="0"/>
  <line style="fill:none;stroke:black;opacity:1;stroke-width:0.5;" x1="263" x2="3036" y1="292" y2="292"/>
  <text style="stroke:none;fill:black;font-family:sans-serif;font-size:13;font-weight:bold;" transform="matrix(1 0 0 1 263 322)">Weight/Scale Variations</text>
  <text style="stroke:none;fill:black;font-family:sans-serif;font-size:13;text-anchor:middle;" transform="matrix(1 0 0 1 559.711 322)">Ultralight</text>
  <text style="stroke:none;fill:black;font-family:sans-serif;font-size:13;text-anchor:middle;" transform="matrix(1 0 0 1 856.422 322)">Thin</text>
  <text style="stroke:none;fill:black;font-family:sans-serif;font-size:13;text-anchor:middle;" transform="matrix(1 0 0 1 1153.13 322)">Light</text>
  <text style="stroke:none;fill:black;font-family:sans-serif;font-size:13;text-anchor:middle;" transform="matrix(1 0 0 1 1449.84 322)">Regular</text>
  <text style="stroke:none;fill:black;font-family:sans-serif;font-size:13;text-anchor:middle;" transform="matrix(1 0 0 1 1746.56 322)">Medium</text>
  <text style="stroke:none;fill:black;font-family:sans-serif;font-size:13;text-anchor:middle;" transform="matrix(1 0 0 1 2043.27 322)">Semibold</text>
  <text style="stroke:none;fill:black;font-family:sans-serif;font-size:13;text-anchor:middle;" transform="matrix(1 0 0 1 2339.98 322)">Bold</text>
  <text style="stroke:none;fill:black;font-family:sans-serif;font-size:13;text-anchor:middle;" transform="matrix(1 0 0 1 2636.69 322)">Heavy</text>
  <text style="stroke:none;fill:black;font-family:sans-serif;font-size:13;text-anchor:middle;" transform="matrix(1 0 0 1 2933.4 322)">Black</text>
  <line style="fill:none;stroke:black;opacity:1;stroke-width:0.5;" x1="263" x2="3036" y1="1903" y2="1903"/>
  <g transform="matrix(1 0 0 1 263 1933)">
   <path d="M9.24805 0.830078C13.5547 0.830078 17.1387-2.74414 17.1387-7.05078C17.1387-11.3574 13.5449-14.9316 9.23828-14.9316C4.94141-14.9316 1.36719-11.3574 1.36719-7.05078C1.36719-2.74414 4.95117 0.830078 9.24805 0.830078ZM9.24805-0.654297C5.70312-0.654297 2.87109-3.49609 2.87109-7.05078C2.87109-10.6055 5.69336-13.4473 9.23828-13.4473C12.793-13.4473 15.6445-10.6055 15.6445-7.05078C15.6445-3.49609 12.8027-0.654297 9.24805-0.654297ZM5.6543-7.05078C5.6543-6.62109 5.95703-6.32812 6.40625-6.32812L8.50586-6.32812L8.50586-4.20898C8.50586-3.76953 8.79883-3.4668 9.22852-3.4668C9.67773-3.4668 9.9707-3.76953 9.9707-4.20898L9.9707-6.32812L12.0898-6.32812C12.5293-6.32812 12.832-6.62109 12.832-7.05078C12.832-7.49023 12.5293-7.79297 12.0898-7.79297L9.9707-7.79297L9.9707-9.90234C9.9707-10.3516 9.67773-10.6543 9.22852-10.6543C8.79883-10.6543 8.50586-10.3516 8.50586-9.90234L8.50586-7.79297L6.40625-7.79297C5.95703-7.79297 5.6543-7.49023 5.6543-7.05078Z"/>
  </g>
  <g transform="matrix(1 0 0 1 281.867 1933)">
   <path d="M11.709 2.91016C17.1582 2.91016 21.6699-1.61133 21.6699-7.05078C21.6699-12.5 17.1484-17.0117 11.6992-17.0117C6.25977-17.0117 1.74805-12.5 1.74805-7.05078C1.74805-1.61133 6.26953 2.91016 11.709 2.91016ZM11.709 1.25C7.09961 1.25 3.41797-2.44141 3.41797-7.05078C3.41797-11.6602 7.08984-15.3516 11.6992-15.3516C16.3086-15.3516 20.0098-11.6602 20.0098-7.05078C20.0098-2.44141 16.3184 1.25 11.709 1.25ZM7.17773-7.05078C7.17773-6.57227 7.50977-6.25 8.00781-6.25L10.8789-6.25L10.8789-3.36914C10.8789-2.88086 11.2109-2.53906 11.6895-2.53906C12.1777-2.53906 12.5195-2.87109 12.5195-3.36914L12.5195-6.25L15.4004-6.25C15.8887-6.25 16.2305-6.57227 16.2305-7.05078C16.2305-7.53906 15.8887-7.88086 15.4004-7.88086L12.5195-7.88086L12.5195-10.752C12.5195-11.25 12.1777-11.5918 11.6895-11.5918C11.2109-11.5918 10.8789-11.25 10.8789-10.752L10.8789-7.88086L8.00781-7.88086C7.50977-7.88086 7.17773-7.53906 7.17773-7.05078Z"/>
  </g>
  <g transform="matrix(1 0 0 1 305.646 1933)">
   <path d="M14.9707 5.66406C21.9336 5.66406 27.6953-0.0976562 27.6953-7.05078C27.6953-14.0137 21.9238-19.7754 14.9609-19.7754C8.00781-19.7754 2.25586-14.0137 2.25586-7.05078C2.25586-0.0976562 8.01758 5.66406 14.9707 5.66406ZM14.9707 3.84766C8.93555 3.84766 4.08203-1.01562 4.08203-7.05078C4.08203-13.0957 8.92578-17.9492 14.9609-17.9492C21.0059-17.9492 25.8691-13.0957 25.8691-7.05078C25.8691-1.01562 21.0156 3.84766 14.9707 3.84766ZM9.19922-7.05078C9.19922-6.5332 9.57031-6.17188 10.1172-6.17188L14.0625-6.17188L14.0625-2.2168C14.0625-1.67969 14.4336-1.29883 14.9512-1.29883C15.4883-1.29883 15.8594-1.66992 15.8594-2.2168L15.8594-6.17188L19.8145-6.17188C20.3516-6.17188 20.7324-6.5332 20.7324-7.05078C20.7324-7.59766 20.3613-7.96875 19.8145-7.96875L15.8594-7.96875L15.8594-11.9141C15.8594-12.4609 15.4883-12.8418 14.9512-12.8418C14.4336-12.8418 14.0625-12.4609 14.0625-11.9141L14.0625-7.96875L10.1172-7.96875C9.57031-7.96875 9.19922-7.59766 9.19922-7.05078Z"/>
  </g>
  <text style="stroke:none;fill:black;font-family:sans-serif;font-size:13;font-weight:bold;" transform="matrix(1 0 0 1 263 1953)">Design Variations</text>
  <text style="stroke:none;fill:black;font-family:sans-serif;font-size:13;" transform="matrix(1 0 0 1 263 1971)">Symbols are supported in up to nine weights and three scales.</text>
  <text style="stroke:none;fill:black;font-family:sans-serif;font-size:13;" transform="matrix(1 0 0 1 263 1989)">For optimal layout with text and other symbols, vertically align</text>
  <text style="stroke:none;fill:black;font-family:sans-serif;font-size:13;" transform="matrix(1 0 0 1 263 2007)">symbols with the adjacent text.</text>
  <line style="fill:none;stroke:#00AEEF;stroke-width:0.5;opacity:1.0;" x1="776" x2="776" y1="1919" y2="1933"/>
  <g transform="matrix(1 0 0 1 776 1933)">
   <path d="M3.31055 0.15625C3.82812 0.15625 4.08203-0.0390625 4.26758-0.585938L5.52734-4.0332L11.2891-4.0332L12.5488-0.585938C12.7344-0.0390625 12.9883 0.15625 13.4961 0.15625C14.0137 0.15625 14.3457-0.15625 14.3457-0.644531C14.3457-0.810547 14.3164-0.966797 14.2383-1.17188L9.6582-13.3691C9.43359-13.9648 9.0332-14.2676 8.4082-14.2676C7.80273-14.2676 7.39258-13.9746 7.17773-13.3789L2.59766-1.16211C2.51953-0.957031 2.49023-0.800781 2.49023-0.634766C2.49023-0.146484 2.80273 0.15625 3.31055 0.15625ZM6.00586-5.51758L8.37891-12.0898L8.42773-12.0898L10.8008-5.51758Z"/>
  </g>
  <line style="fill:none;stroke:#00AEEF;stroke-width:0.5;opacity:1.0;" x1="793.197" x2="793.197" y1="1919" y2="1933"/>
  <text style="stroke:none;fill:black;font-family:sans-serif;font-size:13;font-weight:bold;" transform="matrix(1 0 0 1 776 1953)">Margins</text>
  <text style="stroke:none;fill:black;font-family:sans-serif;font-size:13;" transform="matrix(1 0 0 1 776 1971)">Leading and trailing margins on the left and right side of each symbol</text>
  <text style="stroke:none;fill:black;font-family:sans-serif;font-size:13;" transform="matrix(1 0 0 1 776 1989)">can be adjusted by modifying the x-location of the margin guidelines.</text>
  <text style="stroke:none;fill:black;font-family:sans-serif;font-size:13;" transform="matrix(1 0 0 1 776 2007)">Modifications are automatically applied proportionally to all</text>
  <text style="stroke:none;fill:black;font-family:sans-serif;font-size:13;" transform="matrix(1 0 0 1 776 2025)">scales and weights.</text>
  <g transform="matrix(1 0 0 1 1289 1933)">
   <path d="M2.8418 1.86523L4.54102 3.57422C5.40039 4.44336 6.38672 4.38477 7.31445 3.35938L18.0078-8.42773L17.041-9.4043L6.42578 2.27539C6.07422 2.67578 5.74219 2.77344 5.27344 2.30469L4.10156 1.14258C3.63281 0.683594 3.74023 0.341797 4.14062-0.0195312L15.6152-10.8203L14.6387-11.7871L3.04688-0.898438C2.06055 0.0195312 1.98242 0.996094 2.8418 1.86523ZM9.25781-16.3281C8.83789-15.918 8.80859-15.3418 9.04297-14.9512C9.27734-14.5898 9.73633-14.3555 10.3809-14.5215C11.8457-14.8633 13.3691-14.9219 14.7949-13.9844L14.209-12.5293C13.8672-11.6992 14.043-11.1133 14.5801-10.5664L16.875-8.25195C17.3633-7.76367 17.7734-7.74414 18.3398-7.8418L19.4043-8.03711L20.0684-7.36328L20.0293-6.80664C19.9902-6.30859 20.1172-5.92773 20.6055-5.44922L21.3672-4.70703C21.8457-4.22852 22.4609-4.19922 22.9297-4.66797L25.8398-7.58789C26.3086-8.05664 26.2891-8.65234 25.8105-9.13086L25.0391-9.89258C24.5605-10.3711 24.1895-10.5273 23.7109-10.4883L23.1348-10.4395L22.4902-11.0742L22.7344-12.1973C22.8613-12.7637 22.7051-13.2031 22.1191-13.7891L19.9219-15.9766C16.582-19.2969 12.1484-19.2188 9.25781-16.3281ZM10.752-15.957C13.1836-17.7344 16.4746-17.4316 18.7012-15.2051L21.1328-12.793C21.3672-12.5586 21.4062-12.373 21.3379-12.0312L21.0156-10.5469L22.5195-9.0625L23.5059-9.12109C23.7598-9.13086 23.8379-9.11133 24.0332-8.91602L24.6094-8.33984L22.168-5.89844L21.5918-6.47461C21.3965-6.66992 21.3672-6.74805 21.377-7.01172L21.4453-7.98828L19.9512-9.47266L18.4277-9.21875C18.1055-9.15039 17.959-9.17969 17.7148-9.41406L15.7129-11.416C15.459-11.6504 15.4297-11.8164 15.5859-12.1875L16.4648-14.2773C14.9023-15.7324 12.8711-16.3574 10.8398-15.7617C10.6836-15.7227 10.625-15.8496 10.752-15.957Z"/>
  </g>
  <text style="stroke:none;fill:black;font-family:sans-serif;font-size:13;font-weight:bold;" transform="matrix(1 0 0 1 1289 1953)">Exporting</text>
  <text style="stroke:none;fill:black;font-family:sans-serif;font-size:13;" transform="matrix(1 0 0 1 1289 1971)">Symbols should be outlined when exporting to ensure the</text>
  <text style="stroke:none;fill:black;font-family:sans-serif;font-size:13;" transform="matrix(1 0 0 1 1289 1989)">design is preserved when submitting to Xcode.</text>
  <text id="template-version" style="stroke:none;fill:black;font-family:sans-serif;font-size:13;text-anchor:end;" transform="matrix(1 0 0 1 3036 1933)">Template v.4.0</text>
  <text style="stroke:none;fill:black;font-family:sans-serif;font-size:13;text-anchor:end;" transform="matrix(1 0 0 1 3036 1951)">Requires Xcode 14 or greater</text>
  <text id="descriptive-name" style="stroke:none;fill:black;font-family:sans-serif;font-size:13;text-anchor:end;" transform="matrix(1 0 0 1 3036 1969)">Generated from bus.fill</text>
  <text style="stroke:none;fill:black;font-family:sans-serif;font-size:13;text-anchor:end;" transform="matrix(1 0 0 1 3036 1987)">Typeset at 100 points</text>
  <text style="stroke:none;fill:black;font-family:sans-serif;font-size:13;" transform="matrix(1 0 0 1 263 726)">Small</text>
  <text style="stroke:none;fill:black;font-family:sans-serif;font-size:13;" transform="matrix(1 0 0 1 263 1156)">Medium</text>
  <text style="stroke:none;fill:black;font-family:sans-serif;font-size:13;" transform="matrix(1 0 0 1 263 1586)">Large</text>
 </g>
 <g id="Guides">
  <g id="H-reference" style="fill:#27AAE1;stroke:none;" transform="matrix(1 0 0 1 339 696)">
   <path d="M0.993654 0L3.63775 0L29.3281-67.1323L30.0303-67.1323L30.0303-70.459L28.1226-70.459ZM11.6885-24.4799L46.9815-24.4799L46.2315-26.7285L12.4385-26.7285ZM55.1196 0L57.7637 0L30.6382-70.459L29.4326-70.459L29.4326-67.1323Z"/>
  </g>
  <line id="Baseline-S" style="fill:none;stroke:#27AAE1;opacity:1;stroke-width:0.5;" x1="263" x2="3036" y1="696" y2="696"/>
  <line id="Capline-S" style="fill:none;stroke:#27AAE1;opacity:1;stroke-width:0.5;" x1="263" x2="3036" y1="625.541" y2="625.541"/>
  <g id="H-reference" style="fill:#27AAE1;stroke:none;" transform="matrix(1 0 0 1 339 1126)">
   <path d="M0.993654 0L3.63775 0L29.3281-67.1323L30.0303-67.1323L30.0303-70.459L28.1226-70.459ZM11.6885-24.4799L46.9815-24.4799L46.2315-26.7285L12.4385-26.7285ZM55.1196 0L57.7637 0L30.6382-70.459L29.4326-70.459L29.4326-67.1323Z"/>
  </g>
  <line id="Baseline-M" style="fill:none;stroke:#27AAE1;opacity:1;stroke-width:0.5;" x1="263" x2="3036" y1="1126" y2="1126"/>
  <line id="Capline-M" style="fill:none;stroke:#27AAE1;opacity:1;stroke-width:0.5;" x1="263" x2="3036" y1="1055.54" y2="1055.54"/>
  <g id="H-reference" style="fill:#27AAE1;stroke:none;" transform="matrix(1 0 0 1 339 1556)">
   <path d="M0.993654 0L3.63775 0L29.3281-67.1323L30.0303-67.1323L30.0303-70.459L28.1226-70.459ZM11.6885-24.4799L46.9815-24.4799L46.2315-26.7285L12.4385-26.7285ZM55.1196 0L57.7637 0L30.6382-70.459L29.4326-70.459L29.4326-67.1323Z"/>
  </g>
  <line id="Baseline-L" style="fill:none;stroke:#27AAE1;opacity:1;stroke-width:0.5;" x1="263" x2="3036" y1="1556" y2="1556"/>
  <line id="Capline-L" style="fill:none;stroke:#27AAE1;opacity:1;stroke-width:0.5;" x1="263" x2="3036" y1="1485.54" y2="1485.54"/>
  <line id="left-margin-Ultralight-S" style="fill:none;stroke:#00AEEF;stroke-width:0.5;opacity:1.0;" x1="511.365" x2="511.365" y1="600.785" y2="720.121"/>
  <line id="right-margin-Ultralight-S" style="fill:none;stroke:#00AEEF;stroke-width:0.5;opacity:1.0;" x1="608.057" x2="608.057" y1="600.785" y2="720.121"/>
  <line id="left-margin-Regular-S" style="fill:none;stroke:#00AEEF;stroke-width:0.5;opacity:1.0;" x1="1397.53" x2="1397.53" y1="600.785" y2="720.121"/>
  <line id="right-margin-Regular-S" style="fill:none;stroke:#00AEEF;stroke-width:0.5;opacity:1.0;" x1="1502.16" x2="1502.16" y1="600.785" y2="720.121"/>
  <line id="left-margin-Black-S" style="fill:none;stroke:#00AEEF;stroke-width:0.5;opacity:1.0;" x1="2872.27" x2="2872.27" y1="600.785" y2="720.121"/>
  <line id="right-margin-Black-S" style="fill:none;stroke:#00AEEF;stroke-width:0.5;opacity:1.0;" x1="2994.53" x2="2994.53" y1="600.785" y2="720.121"/>
 </g>
 <g id="Symbols">
  <g id="Black-S" transform="matrix(1 0 0 1 2872.27 696)">
   <path class="monochrome-0 SFSymbolsPreview000000" d="M26.2695 14.3066L31.3477 14.3066C36.7676 14.3066 39.2578 11.8164 39.2578 6.44531L39.2578 1.9043C45.3125 2.39258 52.3926 2.58789 61.1328 2.58789C69.873 2.58789 76.9531 2.39258 83.0078 1.9043L83.0078 6.44531C83.0078 11.8164 85.498 14.3066 90.918 14.3066L95.9961 14.3066C101.416 14.3066 103.906 11.8164 103.906 6.44531L103.906-74.2676C103.906-81.6406 100.049-86.6211 92.5293-87.8906C85.1074-89.1602 74.2676-89.6973 61.1328-89.6973C47.8027-89.6973 37.1094-89.2578 29.7363-87.8906C22.2168-86.4746 18.3594-81.543 18.3594-74.2676L18.3594 6.44531C18.3594 11.8164 20.8496 14.3066 26.2695 14.3066ZM33.4961-26.9043C30.9082-27.4902 29.6875-29.1992 29.6875-32.373L29.6875-71.3379C29.6875-74.5117 30.9082-76.2207 33.4961-76.8066C43.4082-79.0527 77.832-78.8086 88.7695-76.7578C91.3574-76.2695 92.5781-74.6094 92.5781-71.3379L92.5781-32.373C92.5781-29.1016 91.3574-27.3926 88.7695-26.9531C77.2949-25 43.8965-24.5605 33.4961-26.9043ZM98.4375-39.1602L105.762-39.1602C109.57-39.1602 112.5-41.8457 112.5-45.5566L112.5-65.5273C112.5-69.2383 109.57-71.9238 105.762-71.9238L98.4375-71.9238ZM23.8281-39.1602L23.8281-71.9238L16.5039-71.9238C12.6953-71.9238 9.76562-69.2383 9.76562-65.5273L9.76562-45.5566C9.76562-41.8457 12.6953-39.1602 16.5039-39.1602ZM52.9297-9.13086C50.3906-9.13086 48.5352-10.9863 48.5352-13.4766C48.5352-16.0156 50.3906-17.8223 52.9297-17.8223L69.3359-17.8223C71.875-17.8223 73.7305-16.0156 73.7305-13.4766C73.7305-10.9863 71.875-9.13086 69.3359-9.13086ZM85.8398-8.10547C82.8613-8.10547 80.5176-10.4492 80.5176-13.4277C80.5176-16.4062 82.8613-18.75 85.8398-18.75C88.8184-18.75 91.1621-16.4062 91.1621-13.4277C91.1621-10.4492 88.8184-8.10547 85.8398-8.10547ZM36.4258-8.10547C33.4473-8.10547 31.1035-10.4492 31.1035-13.4277C31.1035-16.4062 33.4473-18.75 36.4258-18.75C39.4043-18.75 41.748-16.4062 41.748-13.4277C41.748-10.4492 39.4043-8.10547 36.4258-8.10547Z"/>
  </g>
  <g id="Regular-S" transform="matrix(1 0 0 1 1397.53 696)">
   <path class="monochrome-0 SFSymbolsPreview000000" d="M20.5078 9.57031L25.0488 9.57031C27.9785 9.57031 30.2246 7.32422 30.2246 4.44336L30.2246-2.00195C38.0859-1.46484 45.6543-1.17188 52.2949-1.17188C58.9355-1.17188 66.5039-1.41602 74.4141-2.00195L74.4141 4.44336C74.4141 7.32422 76.6113 9.57031 79.541 9.57031L84.1309 9.57031C87.0117 9.57031 89.2578 7.32422 89.2578 4.44336L89.2578-69.7266C89.2578-74.7559 86.3281-77.7832 80.9082-78.418C72.8027-79.3457 62.1094-79.8828 52.2949-79.8828C42.5781-79.8828 31.9336-79.3945 23.7305-78.418C18.3105-77.7832 15.332-74.7559 15.332-69.7266L15.332 4.44336C15.332 7.32422 17.5781 9.57031 20.5078 9.57031ZM26.9043-27.832C24.2188-28.2715 22.9492-29.7363 22.9492-32.5684L22.9492-66.1133C22.9492-69.3848 24.4629-71.0938 27.5879-71.4355C43.1152-73.0957 61.5234-73.0957 77.1484-71.4355C80.2246-71.0938 81.6895-69.3848 81.6895-66.1133L81.6895-32.5684C81.6895-29.7363 80.4199-28.2715 77.7832-27.832C61.8652-25.293 42.6758-25.293 26.9043-27.832ZM86.4258-43.3594L90.918-43.3594C93.2129-43.3594 94.873-44.7754 94.873-46.9238L94.873-62.0117C94.873-64.1602 93.2129-65.5762 90.918-65.5762L86.4258-65.5762ZM18.1641-43.3594L18.1641-65.5762L13.6719-65.5762C11.4258-65.5762 9.76562-64.1602 9.76562-62.0117L9.76562-46.9238C9.76562-44.7754 11.4258-43.3594 13.6719-43.3594ZM44.1895-11.9141C42.0898-11.9141 40.6738-13.3789 40.6738-15.4297C40.6738-17.5293 42.0898-18.8965 44.1895-18.8965L60.4004-18.8965C62.5-18.8965 63.916-17.5293 63.916-15.4297C63.916-13.3789 62.5-11.9141 60.4004-11.9141ZM75.5859-10.1074C72.6074-10.1074 70.3613-12.3535 70.3613-15.332C70.3613-18.3105 72.6074-20.5566 75.5859-20.5566C78.5645-20.5566 80.8105-18.3105 80.8105-15.332C80.8105-12.3535 78.5645-10.1074 75.5859-10.1074ZM29.0527-10.1074C26.0742-10.1074 23.8281-12.3535 23.8281-15.332C23.8281-18.3105 26.0742-20.5566 29.0527-20.5566C32.0312-20.5566 34.2773-18.3105 34.2773-15.332C34.2773-12.3535 32.0312-10.1074 29.0527-10.1074Z"/>
  </g>
  <g id="Ultralight-S" transform="matrix(1 0 0 1 511.365 696)">
   <path class="monochrome-0 SFSymbolsPreview000000" d="M18.7368 6.7549L22.96 6.7549C25.6172 6.7549 27.6817 4.69045 27.6817 2.03664L27.6817-3.90916C34.0899-3.37206 41.0679-3.1245 48.2989-3.1245C55.4844-3.1245 62.5533-3.36864 69.0103-3.86375L69.0103 2.03664C69.0103 4.69045 71.0713 6.7549 73.7286 6.7549L77.9551 6.7549C80.6089 6.7549 82.6734 4.64504 82.6734 2.03664L82.6734-69.0908C82.6734-73.439 80.0616-75.5127 75.8677-76.0112C67.7168-76.9844 58.2041-77.4307 48.2989-77.4307C38.355-77.4307 28.9365-76.9424 20.8697-76.0112C16.6304-75.5127 14.0151-73.439 14.0151-69.0908L14.0151 2.03664C14.0151 4.64504 16.0796 6.7549 18.7368 6.7549ZM23.2261-27.0601C21.2217-27.2725 20.043-28.5557 20.043-30.6611L20.043-66.6128C20.043-68.749 21.1934-70.0947 23.274-70.2549C41.1172-72.0059 55.938-71.9605 73.4248-70.2549C75.502-70.0947 76.6944-68.749 76.6944-66.6128L76.6944-30.6611C76.6944-28.5557 75.5157-27.2725 73.4693-27.0601C57.6875-25.4292 38.5889-25.4746 23.2261-27.0601ZM81.6123-44.8125L84.5152-44.8125C86.1744-44.8125 86.9263-45.6382 86.9263-47.0601L86.9263-61.603C86.9263-62.9795 86.1744-63.8506 84.5152-63.8506L81.6123-63.8506ZM15.1216-44.8125L15.1216-63.8506L12.1734-63.8506C10.563-63.8506 9.76562-62.9795 9.76562-61.603L9.76562-47.0601C9.76562-45.6382 10.563-44.8125 12.1734-44.8125ZM39.0127-13.9121C37.458-13.9121 36.4053-14.9682 36.4053-16.5195C36.4053-18.0288 37.458-19.0781 39.0127-19.0781L57.4033-19.0781C58.9126-19.0781 59.9654-18.0288 59.9654-16.5195C59.9654-14.9682 58.9126-13.9121 57.4033-13.9121ZM70.1822-12.8774C68.1119-12.8774 66.5923-14.397 66.5923-16.5127C66.5923-18.583 68.1119-20.148 70.1822-20.148C72.2979-20.148 73.8628-18.583 73.8628-16.5127C73.8628-14.397 72.2979-12.8774 70.1822-12.8774ZM26.5098-12.8774C24.3941-12.8774 22.8745-14.397 22.8745-16.5127C22.8745-18.583 24.3941-20.148 26.5098-20.148C28.5801-20.148 30.0996-18.583 30.0996-16.5127C30.0996-14.397 28.5801-12.8774 26.5098-12.8774Z"/>
  </g>
 </g>
</svg>
